<?xml version="1.0" standalone="no"?>
<!DOCTYPE svg PUBLIC "-//W3C//DTD SVG 20010904//EN"
 "http://www.w3.org/TR/2001/REC-SVG-20010904/DTD/svg10.dtd">
<svg version="1.0" xmlns="http://www.w3.org/2000/svg"
 width="16.000000pt" height="16.000000pt" viewBox="0 0 16.000000 16.000000"
 preserveAspectRatio="xMidYMid meet">
<metadata>
Created by potrace 1.11, written by Peter Selinger 2001-2013
</metadata>
<g transform="translate(0.000000,16.000000) scale(0.001509,-0.001509)"
fill="#000000" stroke="none">
<path d="M6717 8315 c-1 -2 -36 -5 -77 -9 -149 -12 -291 -43 -449 -95 -161
-54 -393 -167 -496 -243 -5 -4 -48 -36 -95 -70 -85 -63 -277 -247 -337 -323
-17 -22 -45 -57 -62 -78 -16 -21 -31 -43 -33 -48 -2 -5 -23 1 -48 14 -90 47
-265 117 -360 143 -59 16 -182 43 -215 48 -23 4 -51 8 -64 11 -143 27 -469 23
-636 -9 -63 -12 -80 -16 -159 -36 -353 -92 -661 -266 -917 -520 -58 -58 -126
-130 -151 -160 -116 -141 -236 -341 -305 -507 l-29 -72 -155 -5 c-135 -4 -218
-12 -309 -31 -14 -3 -38 -8 -55 -11 -126 -22 -419 -125 -495 -174 -8 -5 -31
-17 -50 -27 -128 -62 -346 -227 -471 -354 -298 -303 -490 -670 -563 -1079 -29
-161 -38 -387 -22 -550 68 -716 502 -1336 1149 -1645 227 -108 400 -157 673
-192 79 -10 6517 -10 6617 0 118 12 224 32 377 71 112 29 366 142 490 217 335
204 628 533 784 879 21 47 42 94 47 105 36 82 97 296 114 400 41 263 38 530
-9 760 -20 98 -69 270 -86 305 -4 8 -23 51 -41 95 -198 480 -612 886 -1109
1087 -61 25 -202 72 -245 82 -54 13 -55 13 -56 97 -1 43 -2 82 -3 87 -1 4 -6
36 -10 72 -5 36 -10 72 -11 80 -53 262 -128 469 -245 670 -113 195 -331 446
-509 585 -139 109 -345 227 -496 285 -33 12 -69 26 -80 31 -71 29 -218 67
-332 85 -21 3 -40 7 -43 9 -16 10 -412 28 -423 20z"/>
</g>
</svg>
